<?xml version="1.0" encoding="UTF-8" standalone="no"?>
<!DOCTYPE svg PUBLIC "-//W3C//DTD SVG 1.1//EN"
 "http://www.w3.org/Graphics/SVG/1.1/DTD/svg11.dtd">
<!-- Generated by graphviz version 2.43.0 (0)
 -->
<!-- Title: snakemake_dag Pages: 1 -->
<svg width="1755pt" height="620pt"
 viewBox="0.00 0.00 1755.00 620.00" xmlns="http://www.w3.org/2000/svg" xmlns:xlink="http://www.w3.org/1999/xlink">
<g id="graph0" class="graph" transform="scale(1 1) rotate(0) translate(4 616)">
<title>snakemake_dag</title>
<polygon fill="white" stroke="transparent" points="-4,4 -4,-616 1751,-616 1751,4 -4,4"/>
<!-- 0 -->
<g id="node1" class="node">
<title>0</title>
<path fill="none" stroke="#56d86b" stroke-width="2" d="M779,-36C779,-36 749,-36 749,-36 743,-36 737,-30 737,-24 737,-24 737,-12 737,-12 737,-6 743,0 749,0 749,0 779,0 779,0 785,0 791,-6 791,-12 791,-12 791,-24 791,-24 791,-30 785,-36 779,-36"/>
<text text-anchor="middle" x="764" y="-15.5" font-family="sans" font-size="10.00">all</text>
</g>
<!-- 1 -->
<g id="node2" class="node">
<title>1</title>
<path fill="none" stroke="#97d856" stroke-width="2" d="M348.5,-612C348.5,-612 227.5,-612 227.5,-612 221.5,-612 215.5,-606 215.5,-600 215.5,-600 215.5,-588 215.5,-588 215.5,-582 221.5,-576 227.5,-576 227.5,-576 348.5,-576 348.5,-576 354.5,-576 360.5,-582 360.5,-588 360.5,-588 360.5,-600 360.5,-600 360.5,-606 354.5,-612 348.5,-612"/>
<text text-anchor="middle" x="288" y="-597" font-family="sans" font-size="10.00">fastp</text>
<text text-anchor="middle" x="288" y="-586" font-family="sans" font-size="10.00">sample: sample_raw_read</text>
</g>
<!-- 1&#45;&gt;0 -->
<g id="edge1" class="edge">
<title>1&#45;&gt;0</title>
<path fill="none" stroke="grey" stroke-width="2" d="M215.33,-588.14C130.01,-578.03 0,-546.89 0,-451 0,-451 0,-451 0,-161 0,-117.81 3.74,-96.93 39,-72 95.43,-32.1 586.08,-21.68 726.56,-19.5"/>
<polygon fill="grey" stroke="grey" stroke-width="2" points="726.87,-23 736.82,-19.35 726.76,-16 726.87,-23"/>
</g>
<!-- 3 -->
<g id="node4" class="node">
<title>3</title>
<path fill="none" stroke="#d6d856" stroke-width="2" d="M304,-540C304,-540 272,-540 272,-540 266,-540 260,-534 260,-528 260,-528 260,-516 260,-516 260,-510 266,-504 272,-504 272,-504 304,-504 304,-504 310,-504 316,-510 316,-516 316,-516 316,-528 316,-528 316,-534 310,-540 304,-540"/>
<text text-anchor="middle" x="288" y="-519.5" font-family="sans" font-size="10.00">kraken2</text>
</g>
<!-- 1&#45;&gt;3 -->
<g id="edge25" class="edge">
<title>1&#45;&gt;3</title>
<path fill="none" stroke="grey" stroke-width="2" d="M288,-575.7C288,-567.98 288,-558.71 288,-550.11"/>
<polygon fill="grey" stroke="grey" stroke-width="2" points="291.5,-550.1 288,-540.1 284.5,-550.1 291.5,-550.1"/>
</g>
<!-- 5 -->
<g id="node6" class="node">
<title>5</title>
<path fill="none" stroke="#d86e56" stroke-width="2" d="M643,-468C643,-468 593,-468 593,-468 587,-468 581,-462 581,-456 581,-456 581,-444 581,-444 581,-438 587,-432 593,-432 593,-432 643,-432 643,-432 649,-432 655,-438 655,-444 655,-444 655,-456 655,-456 655,-462 649,-468 643,-468"/>
<text text-anchor="middle" x="618" y="-447.5" font-family="sans" font-size="10.00">krakentools</text>
</g>
<!-- 1&#45;&gt;5 -->
<g id="edge27" class="edge">
<title>1&#45;&gt;5</title>
<path fill="none" stroke="grey" stroke-width="2" d="M327.81,-575.87C389.16,-549.47 506.54,-498.96 571.63,-470.95"/>
<polygon fill="grey" stroke="grey" stroke-width="2" points="573.04,-474.16 580.85,-466.99 570.28,-467.73 573.04,-474.16"/>
</g>
<!-- 2 -->
<g id="node3" class="node">
<title>2</title>
<path fill="none" stroke="#569ad8" stroke-width="2" stroke-dasharray="5,2" d="M1190.5,-108C1190.5,-108 1131.5,-108 1131.5,-108 1125.5,-108 1119.5,-102 1119.5,-96 1119.5,-96 1119.5,-84 1119.5,-84 1119.5,-78 1125.5,-72 1131.5,-72 1131.5,-72 1190.5,-72 1190.5,-72 1196.5,-72 1202.5,-78 1202.5,-84 1202.5,-84 1202.5,-96 1202.5,-96 1202.5,-102 1196.5,-108 1190.5,-108"/>
<text text-anchor="middle" x="1161" y="-87.5" font-family="sans" font-size="10.00">fastp_multiqc</text>
</g>
<!-- 2&#45;&gt;0 -->
<g id="edge2" class="edge">
<title>2&#45;&gt;0</title>
<path fill="none" stroke="grey" stroke-width="2" d="M1119.28,-75.63C1114.49,-74.31 1109.66,-73.06 1105,-72 995.95,-47.1 864.59,-30.33 801.46,-23.08"/>
<polygon fill="grey" stroke="grey" stroke-width="2" points="801.54,-19.56 791.21,-21.91 800.75,-26.52 801.54,-19.56"/>
</g>
<!-- 3&#45;&gt;0 -->
<g id="edge3" class="edge">
<title>3&#45;&gt;0</title>
<path fill="none" stroke="grey" stroke-width="2" d="M259.81,-518.23C194.43,-510.1 38,-480.08 38,-379 38,-379 38,-379 38,-161 38,-118.81 37.31,-97.4 71,-72 123.53,-32.39 589.52,-21.8 726.37,-19.54"/>
<polygon fill="grey" stroke="grey" stroke-width="2" points="726.81,-23.03 736.75,-19.37 726.7,-16.03 726.81,-23.03"/>
</g>
<!-- 3&#45;&gt;5 -->
<g id="edge26" class="edge">
<title>3&#45;&gt;5</title>
<path fill="none" stroke="grey" stroke-width="2" d="M316.14,-515.03C372.81,-503.01 501.24,-475.77 570.92,-460.99"/>
<polygon fill="grey" stroke="grey" stroke-width="2" points="571.7,-464.4 580.75,-458.9 570.25,-457.55 571.7,-464.4"/>
</g>
<!-- 4 -->
<g id="node5" class="node">
<title>4</title>
<path fill="none" stroke="#566bd8" stroke-width="2" stroke-dasharray="5,2" d="M1307,-108C1307,-108 1233,-108 1233,-108 1227,-108 1221,-102 1221,-96 1221,-96 1221,-84 1221,-84 1221,-78 1227,-72 1233,-72 1233,-72 1307,-72 1307,-72 1313,-72 1319,-78 1319,-84 1319,-84 1319,-96 1319,-96 1319,-102 1313,-108 1307,-108"/>
<text text-anchor="middle" x="1270" y="-87.5" font-family="sans" font-size="10.00">kraken2_multiqc</text>
</g>
<!-- 4&#45;&gt;0 -->
<g id="edge4" class="edge">
<title>4&#45;&gt;0</title>
<path fill="none" stroke="grey" stroke-width="2" d="M1220.89,-74.2C1217.56,-73.4 1214.24,-72.65 1211,-72 1060.84,-41.67 878.54,-26.71 801.38,-21.37"/>
<polygon fill="grey" stroke="grey" stroke-width="2" points="801.41,-17.86 791.2,-20.68 800.94,-24.85 801.41,-17.86"/>
</g>
<!-- 5&#45;&gt;0 -->
<g id="edge5" class="edge">
<title>5&#45;&gt;0</title>
<path fill="none" stroke="grey" stroke-width="2" d="M655.03,-446.01C767.11,-435.95 1095,-398.7 1095,-307 1095,-307 1095,-307 1095,-233 1095,-160.72 1122.38,-123.83 1072,-72 1035.06,-33.99 875.08,-23.13 801.41,-20.11"/>
<polygon fill="grey" stroke="grey" stroke-width="2" points="801.31,-16.61 791.19,-19.72 801.05,-23.6 801.31,-16.61"/>
</g>
<!-- 6 -->
<g id="node7" class="node">
<title>6</title>
<path fill="none" stroke="#56d8a9" stroke-width="2" d="M644.5,-396C644.5,-396 591.5,-396 591.5,-396 585.5,-396 579.5,-390 579.5,-384 579.5,-384 579.5,-372 579.5,-372 579.5,-366 585.5,-360 591.5,-360 591.5,-360 644.5,-360 644.5,-360 650.5,-360 656.5,-366 656.5,-372 656.5,-372 656.5,-384 656.5,-384 656.5,-390 650.5,-396 644.5,-396"/>
<text text-anchor="middle" x="618" y="-375.5" font-family="sans" font-size="10.00">metaspades</text>
</g>
<!-- 5&#45;&gt;6 -->
<g id="edge28" class="edge">
<title>5&#45;&gt;6</title>
<path fill="none" stroke="grey" stroke-width="2" d="M618,-431.7C618,-423.98 618,-414.71 618,-406.11"/>
<polygon fill="grey" stroke="grey" stroke-width="2" points="621.5,-406.1 618,-396.1 614.5,-406.1 621.5,-406.1"/>
</g>
<!-- 15 -->
<g id="node16" class="node">
<title>15</title>
<path fill="none" stroke="#56c1d8" stroke-width="2" d="M1055,-180C1055,-180 1013,-180 1013,-180 1007,-180 1001,-174 1001,-168 1001,-168 1001,-156 1001,-156 1001,-150 1007,-144 1013,-144 1013,-144 1055,-144 1055,-144 1061,-144 1067,-150 1067,-156 1067,-156 1067,-168 1067,-168 1067,-174 1061,-180 1055,-180"/>
<text text-anchor="middle" x="1034" y="-159.5" font-family="sans" font-size="10.00">minimap2</text>
</g>
<!-- 5&#45;&gt;15 -->
<g id="edge38" class="edge">
<title>5&#45;&gt;15</title>
<path fill="none" stroke="grey" stroke-width="2" d="M655.26,-448.68C734.07,-445.91 918.57,-427.99 1018,-324 1052.04,-288.4 1046.95,-226.03 1040.37,-190.26"/>
<polygon fill="grey" stroke="grey" stroke-width="2" points="1043.72,-189.19 1038.32,-180.08 1036.86,-190.57 1043.72,-189.19"/>
</g>
<!-- 6&#45;&gt;0 -->
<g id="edge6" class="edge">
<title>6&#45;&gt;0</title>
<path fill="none" stroke="grey" stroke-width="2" d="M579.46,-375.22C455.63,-368.45 76,-339.2 76,-235 76,-235 76,-235 76,-161 76,-120.55 64.59,-98.66 95,-72 142.66,-30.22 592.68,-21.17 726.59,-19.4"/>
<polygon fill="grey" stroke="grey" stroke-width="2" points="726.8,-22.9 736.76,-19.27 726.71,-15.9 726.8,-22.9"/>
</g>
<!-- 8 -->
<g id="node9" class="node">
<title>8</title>
<path fill="none" stroke="#56d8d8" stroke-width="2" d="M595,-324C595,-324 557,-324 557,-324 551,-324 545,-318 545,-312 545,-312 545,-300 545,-300 545,-294 551,-288 557,-288 557,-288 595,-288 595,-288 601,-288 607,-294 607,-300 607,-300 607,-312 607,-312 607,-318 601,-324 595,-324"/>
<text text-anchor="middle" x="576" y="-303.5" font-family="sans" font-size="10.00">genomad</text>
</g>
<!-- 6&#45;&gt;8 -->
<g id="edge30" class="edge">
<title>6&#45;&gt;8</title>
<path fill="none" stroke="grey" stroke-width="2" d="M607.62,-359.7C602.74,-351.56 596.81,-341.69 591.42,-332.7"/>
<polygon fill="grey" stroke="grey" stroke-width="2" points="594.41,-330.88 586.26,-324.1 588.41,-334.48 594.41,-330.88"/>
</g>
<!-- 9 -->
<g id="node10" class="node">
<title>9</title>
<path fill="none" stroke="#80d856" stroke-width="2" d="M701,-252C701,-252 671,-252 671,-252 665,-252 659,-246 659,-240 659,-240 659,-228 659,-228 659,-222 665,-216 671,-216 671,-216 701,-216 701,-216 707,-216 713,-222 713,-228 713,-228 713,-240 713,-240 713,-246 707,-252 701,-252"/>
<text text-anchor="middle" x="686" y="-231.5" font-family="sans" font-size="10.00">checkv</text>
</g>
<!-- 6&#45;&gt;9 -->
<g id="edge31" class="edge">
<title>6&#45;&gt;9</title>
<path fill="none" stroke="grey" stroke-width="2" d="M626.2,-359.87C637.94,-335.35 659.65,-290.03 673.43,-261.26"/>
<polygon fill="grey" stroke="grey" stroke-width="2" points="676.61,-262.72 677.77,-252.19 670.29,-259.7 676.61,-262.72"/>
</g>
<!-- 11 -->
<g id="node12" class="node">
<title>11</title>
<path fill="none" stroke="#56d89a" stroke-width="2" d="M895,-108C895,-108 747,-108 747,-108 741,-108 735,-102 735,-96 735,-96 735,-84 735,-84 735,-78 741,-72 747,-72 747,-72 895,-72 895,-72 901,-72 907,-78 907,-84 907,-84 907,-96 907,-96 907,-102 901,-108 895,-108"/>
<text text-anchor="middle" x="821" y="-87.5" font-family="sans" font-size="10.00">filterContigs_on_checkv_quality</text>
</g>
<!-- 6&#45;&gt;11 -->
<g id="edge34" class="edge">
<title>6&#45;&gt;11</title>
<path fill="none" stroke="grey" stroke-width="2" d="M647.95,-359.93C696.2,-330.47 789.44,-264.98 826,-180 834.38,-160.51 832.35,-136.37 828.66,-118.15"/>
<polygon fill="grey" stroke="grey" stroke-width="2" points="832.02,-117.14 826.36,-108.19 825.2,-118.72 832.02,-117.14"/>
</g>
<!-- 7 -->
<g id="node8" class="node">
<title>7</title>
<path fill="none" stroke="#68d856" stroke-width="2" d="M519,-252C519,-252 479,-252 479,-252 473,-252 467,-246 467,-240 467,-240 467,-228 467,-228 467,-222 473,-216 479,-216 479,-216 519,-216 519,-216 525,-216 531,-222 531,-228 531,-228 531,-240 531,-240 531,-246 525,-252 519,-252"/>
<text text-anchor="middle" x="499" y="-231.5" font-family="sans" font-size="10.00">metabat2</text>
</g>
<!-- 7&#45;&gt;0 -->
<g id="edge7" class="edge">
<title>7&#45;&gt;0</title>
<path fill="none" stroke="grey" stroke-width="2" d="M504.07,-215.85C514.68,-182.98 542.35,-110.9 591,-72 630.58,-40.35 688.98,-27.54 726.76,-22.4"/>
<polygon fill="grey" stroke="grey" stroke-width="2" points="727.35,-25.85 736.84,-21.14 726.48,-18.91 727.35,-25.85"/>
</g>
<!-- 8&#45;&gt;0 -->
<g id="edge8" class="edge">
<title>8&#45;&gt;0</title>
<path fill="none" stroke="grey" stroke-width="2" d="M588.73,-287.78C595.97,-277.63 604.97,-264.38 612,-252 655.61,-175.24 640.99,-141.05 696,-72 705.16,-60.51 717.29,-50.03 728.77,-41.49"/>
<polygon fill="grey" stroke="grey" stroke-width="2" points="730.87,-44.29 736.96,-35.62 726.8,-38.6 730.87,-44.29"/>
</g>
<!-- 8&#45;&gt;7 -->
<g id="edge29" class="edge">
<title>8&#45;&gt;7</title>
<path fill="none" stroke="grey" stroke-width="2" d="M556.97,-287.7C547.46,-279.05 535.79,-268.45 525.43,-259.03"/>
<polygon fill="grey" stroke="grey" stroke-width="2" points="527.57,-256.24 517.81,-252.1 522.86,-261.42 527.57,-256.24"/>
</g>
<!-- 17 -->
<g id="node18" class="node">
<title>17</title>
<path fill="none" stroke="#56a9d8" stroke-width="2" d="M591,-252C591,-252 561,-252 561,-252 555,-252 549,-246 549,-240 549,-240 549,-228 549,-228 549,-222 555,-216 561,-216 561,-216 591,-216 591,-216 597,-216 603,-222 603,-228 603,-228 603,-240 603,-240 603,-246 597,-252 591,-252"/>
<text text-anchor="middle" x="576" y="-231.5" font-family="sans" font-size="10.00">blastn</text>
</g>
<!-- 8&#45;&gt;17 -->
<g id="edge39" class="edge">
<title>8&#45;&gt;17</title>
<path fill="none" stroke="grey" stroke-width="2" d="M576,-287.7C576,-279.98 576,-270.71 576,-262.11"/>
<polygon fill="grey" stroke="grey" stroke-width="2" points="579.5,-262.1 576,-252.1 572.5,-262.1 579.5,-262.1"/>
</g>
<!-- 20 -->
<g id="node21" class="node">
<title>20</title>
<path fill="none" stroke="#56d8c1" stroke-width="2" d="M430.5,-252C430.5,-252 329.5,-252 329.5,-252 323.5,-252 317.5,-246 317.5,-240 317.5,-240 317.5,-228 317.5,-228 317.5,-222 323.5,-216 329.5,-216 329.5,-216 430.5,-216 430.5,-216 436.5,-216 442.5,-222 442.5,-228 442.5,-228 442.5,-240 442.5,-240 442.5,-246 436.5,-252 430.5,-252"/>
<text text-anchor="middle" x="380" y="-231.5" font-family="sans" font-size="10.00">sourmash_sketch_dna</text>
</g>
<!-- 8&#45;&gt;20 -->
<g id="edge42" class="edge">
<title>8&#45;&gt;20</title>
<path fill="none" stroke="grey" stroke-width="2" d="M544.94,-293.91C516.13,-283.62 472.54,-268.05 437.4,-255.5"/>
<polygon fill="grey" stroke="grey" stroke-width="2" points="438.33,-252.11 427.73,-252.05 435.97,-258.71 438.33,-252.11"/>
</g>
<!-- 9&#45;&gt;0 -->
<g id="edge9" class="edge">
<title>9&#45;&gt;0</title>
<path fill="none" stroke="grey" stroke-width="2" d="M684.46,-215.71C683.28,-197.61 682.67,-168.46 688,-144 695.42,-109.96 700.63,-101.61 719,-72 725.08,-62.21 732.88,-52.34 740.28,-43.83"/>
<polygon fill="grey" stroke="grey" stroke-width="2" points="743.11,-45.91 747.18,-36.12 737.9,-41.24 743.11,-45.91"/>
</g>
<!-- 10 -->
<g id="node11" class="node">
<title>10</title>
<path fill="none" stroke="#c6d856" stroke-width="2" d="M805,-180C805,-180 709,-180 709,-180 703,-180 697,-174 697,-168 697,-168 697,-156 697,-156 697,-150 703,-144 709,-144 709,-144 805,-144 805,-144 811,-144 817,-150 817,-156 817,-156 817,-168 817,-168 817,-174 811,-180 805,-180"/>
<text text-anchor="middle" x="757" y="-159.5" font-family="sans" font-size="10.00">checkv_select_nodes</text>
</g>
<!-- 9&#45;&gt;10 -->
<g id="edge32" class="edge">
<title>9&#45;&gt;10</title>
<path fill="none" stroke="grey" stroke-width="2" d="M703.55,-215.7C712.23,-207.14 722.86,-196.66 732.35,-187.3"/>
<polygon fill="grey" stroke="grey" stroke-width="2" points="734.99,-189.62 739.65,-180.1 730.07,-184.63 734.99,-189.62"/>
</g>
<!-- 10&#45;&gt;0 -->
<g id="edge10" class="edge">
<title>10&#45;&gt;0</title>
<path fill="none" stroke="grey" stroke-width="2" d="M743.85,-143.91C737.08,-134.01 729.51,-120.96 726,-108 721.82,-92.56 721.1,-87.23 726,-72 729.19,-62.08 735,-52.44 741.13,-44.17"/>
<polygon fill="grey" stroke="grey" stroke-width="2" points="744.07,-46.09 747.54,-36.08 738.58,-41.74 744.07,-46.09"/>
</g>
<!-- 10&#45;&gt;11 -->
<g id="edge33" class="edge">
<title>10&#45;&gt;11</title>
<path fill="none" stroke="grey" stroke-width="2" d="M772.82,-143.7C780.57,-135.22 790.04,-124.86 798.52,-115.58"/>
<polygon fill="grey" stroke="grey" stroke-width="2" points="801.2,-117.85 805.36,-108.1 796.03,-113.12 801.2,-117.85"/>
</g>
<!-- 11&#45;&gt;0 -->
<g id="edge11" class="edge">
<title>11&#45;&gt;0</title>
<path fill="none" stroke="grey" stroke-width="2" d="M806.91,-71.7C800.08,-63.3 791.74,-53.07 784.24,-43.86"/>
<polygon fill="grey" stroke="grey" stroke-width="2" points="786.96,-41.65 777.93,-36.1 781.53,-46.07 786.96,-41.65"/>
</g>
<!-- 12 -->
<g id="node13" class="node">
<title>12</title>
<path fill="none" stroke="#d8c356" stroke-width="2" stroke-dasharray="5,2" d="M997.5,-324C997.5,-324 904.5,-324 904.5,-324 898.5,-324 892.5,-318 892.5,-312 892.5,-312 892.5,-300 892.5,-300 892.5,-294 898.5,-288 904.5,-288 904.5,-288 997.5,-288 997.5,-288 1003.5,-288 1009.5,-294 1009.5,-300 1009.5,-300 1009.5,-312 1009.5,-312 1009.5,-318 1003.5,-324 997.5,-324"/>
<text text-anchor="middle" x="951" y="-303.5" font-family="sans" font-size="10.00">concatenate_contigs</text>
</g>
<!-- 12&#45;&gt;0 -->
<g id="edge12" class="edge">
<title>12&#45;&gt;0</title>
<path fill="none" stroke="grey" stroke-width="2" d="M940.9,-287.97C935.45,-277.87 929.2,-264.62 926,-252 906.32,-174.33 964.2,-136.01 916,-72 889.22,-36.44 836.93,-24.61 801.23,-20.75"/>
<polygon fill="grey" stroke="grey" stroke-width="2" points="801.47,-17.26 791.19,-19.83 800.82,-24.23 801.47,-17.26"/>
</g>
<!-- 13 -->
<g id="node14" class="node">
<title>13</title>
<path fill="none" stroke="#d88556" stroke-width="2" stroke-dasharray="5,2" d="M1016.5,-252C1016.5,-252 947.5,-252 947.5,-252 941.5,-252 935.5,-246 935.5,-240 935.5,-240 935.5,-228 935.5,-228 935.5,-222 941.5,-216 947.5,-216 947.5,-216 1016.5,-216 1016.5,-216 1022.5,-216 1028.5,-222 1028.5,-228 1028.5,-228 1028.5,-240 1028.5,-240 1028.5,-246 1022.5,-252 1016.5,-252"/>
<text text-anchor="middle" x="982" y="-231.5" font-family="sans" font-size="10.00">minimap2Index</text>
</g>
<!-- 12&#45;&gt;13 -->
<g id="edge35" class="edge">
<title>12&#45;&gt;13</title>
<path fill="none" stroke="grey" stroke-width="2" d="M958.66,-287.7C962.19,-279.73 966.46,-270.1 970.37,-261.26"/>
<polygon fill="grey" stroke="grey" stroke-width="2" points="973.58,-262.67 974.43,-252.1 967.18,-259.83 973.58,-262.67"/>
</g>
<!-- 13&#45;&gt;0 -->
<g id="edge13" class="edge">
<title>13&#45;&gt;0</title>
<path fill="none" stroke="grey" stroke-width="2" d="M983.79,-215.89C986.17,-183.4 986.41,-112.41 949,-72 910.91,-30.87 843.29,-20.89 801.2,-18.89"/>
<polygon fill="grey" stroke="grey" stroke-width="2" points="801.2,-15.39 791.08,-18.54 800.95,-22.38 801.2,-15.39"/>
</g>
<!-- 13&#45;&gt;15 -->
<g id="edge37" class="edge">
<title>13&#45;&gt;15</title>
<path fill="none" stroke="grey" stroke-width="2" d="M994.85,-215.7C1001.03,-207.39 1008.54,-197.28 1015.32,-188.14"/>
<polygon fill="grey" stroke="grey" stroke-width="2" points="1018.14,-190.22 1021.29,-180.1 1012.52,-186.04 1018.14,-190.22"/>
</g>
<!-- 14 -->
<g id="node15" class="node">
<title>14</title>
<path fill="none" stroke="#d8ac56" stroke-width="2" d="M1051,-108C1051,-108 1013,-108 1013,-108 1007,-108 1001,-102 1001,-96 1001,-96 1001,-84 1001,-84 1001,-78 1007,-72 1013,-72 1013,-72 1051,-72 1051,-72 1057,-72 1063,-78 1063,-84 1063,-84 1063,-96 1063,-96 1063,-102 1057,-108 1051,-108"/>
<text text-anchor="middle" x="1032" y="-87.5" font-family="sans" font-size="10.00">samtools</text>
</g>
<!-- 14&#45;&gt;0 -->
<g id="edge14" class="edge">
<title>14&#45;&gt;0</title>
<path fill="none" stroke="grey" stroke-width="2" d="M1000.71,-76.59C996.14,-74.95 991.47,-73.37 987,-72 922.54,-52.25 845.73,-35.43 801.15,-26.31"/>
<polygon fill="grey" stroke="grey" stroke-width="2" points="801.57,-22.82 791.07,-24.27 800.18,-29.68 801.57,-22.82"/>
</g>
<!-- 15&#45;&gt;14 -->
<g id="edge36" class="edge">
<title>15&#45;&gt;14</title>
<path fill="none" stroke="grey" stroke-width="2" d="M1033.51,-143.7C1033.29,-135.98 1033.02,-126.71 1032.77,-118.11"/>
<polygon fill="grey" stroke="grey" stroke-width="2" points="1036.27,-118 1032.49,-108.1 1029.28,-118.2 1036.27,-118"/>
</g>
<!-- 16 -->
<g id="node17" class="node">
<title>16</title>
<path fill="none" stroke="#5682d8" stroke-width="2" stroke-dasharray="5,2" d="M1379,-108C1379,-108 1349,-108 1349,-108 1343,-108 1337,-102 1337,-96 1337,-96 1337,-84 1337,-84 1337,-78 1343,-72 1349,-72 1349,-72 1379,-72 1379,-72 1385,-72 1391,-78 1391,-84 1391,-84 1391,-96 1391,-96 1391,-102 1385,-108 1379,-108"/>
<text text-anchor="middle" x="1364" y="-87.5" font-family="sans" font-size="10.00">vamb</text>
</g>
<!-- 16&#45;&gt;0 -->
<g id="edge15" class="edge">
<title>16&#45;&gt;0</title>
<path fill="none" stroke="grey" stroke-width="2" d="M1336.86,-74.99C1333.92,-73.83 1330.93,-72.8 1328,-72 1228.06,-44.62 910.48,-26.4 801.29,-20.82"/>
<polygon fill="grey" stroke="grey" stroke-width="2" points="801.26,-17.31 791.09,-20.3 800.9,-24.3 801.26,-17.31"/>
</g>
<!-- 17&#45;&gt;0 -->
<g id="edge16" class="edge">
<title>17&#45;&gt;0</title>
<path fill="none" stroke="grey" stroke-width="2" d="M575.43,-215.53C575.33,-183.07 579.78,-113.01 617,-72 645.22,-40.91 693.04,-28.04 726.45,-22.73"/>
<polygon fill="grey" stroke="grey" stroke-width="2" points="727.34,-26.13 736.75,-21.25 726.35,-19.2 727.34,-26.13"/>
</g>
<!-- 18 -->
<g id="node19" class="node">
<title>18</title>
<path fill="none" stroke="#d89556" stroke-width="2" d="M173.5,-108C173.5,-108 116.5,-108 116.5,-108 110.5,-108 104.5,-102 104.5,-96 104.5,-96 104.5,-84 104.5,-84 104.5,-78 110.5,-72 116.5,-72 116.5,-72 173.5,-72 173.5,-72 179.5,-72 185.5,-78 185.5,-84 185.5,-84 185.5,-96 185.5,-96 185.5,-102 179.5,-108 173.5,-108"/>
<text text-anchor="middle" x="145" y="-87.5" font-family="sans" font-size="10.00">tax_annotate</text>
</g>
<!-- 18&#45;&gt;0 -->
<g id="edge17" class="edge">
<title>18&#45;&gt;0</title>
<path fill="none" stroke="grey" stroke-width="2" d="M185.7,-74.06C188.49,-73.29 191.27,-72.59 194,-72 391.61,-29.19 635.12,-20.95 726.78,-19.37"/>
<polygon fill="grey" stroke="grey" stroke-width="2" points="727,-22.87 736.94,-19.21 726.89,-15.87 727,-22.87"/>
</g>
<!-- 19 -->
<g id="node20" class="node">
<title>19</title>
<path fill="none" stroke="#56d882" stroke-width="2" d="M293.5,-180C293.5,-180 216.5,-180 216.5,-180 210.5,-180 204.5,-174 204.5,-168 204.5,-168 204.5,-156 204.5,-156 204.5,-150 210.5,-144 216.5,-144 216.5,-144 293.5,-144 293.5,-144 299.5,-144 305.5,-150 305.5,-156 305.5,-156 305.5,-168 305.5,-168 305.5,-174 299.5,-180 293.5,-180"/>
<text text-anchor="middle" x="255" y="-165" font-family="sans" font-size="10.00">sourmash_gather</text>
<text text-anchor="middle" x="255" y="-154" font-family="sans" font-size="10.00">ksize: 31</text>
</g>
<!-- 19&#45;&gt;18 -->
<g id="edge40" class="edge">
<title>19&#45;&gt;18</title>
<path fill="none" stroke="grey" stroke-width="2" d="M228.09,-143.88C213.84,-134.81 196.15,-123.55 180.76,-113.76"/>
<polygon fill="grey" stroke="grey" stroke-width="2" points="182.33,-110.61 172.01,-108.19 178.57,-116.51 182.33,-110.61"/>
</g>
<!-- 23 -->
<g id="node24" class="node">
<title>23</title>
<path fill="none" stroke="#d85656" stroke-width="2" d="M294.5,-108C294.5,-108 215.5,-108 215.5,-108 209.5,-108 203.5,-102 203.5,-96 203.5,-96 203.5,-84 203.5,-84 203.5,-78 209.5,-72 215.5,-72 215.5,-72 294.5,-72 294.5,-72 300.5,-72 306.5,-78 306.5,-84 306.5,-84 306.5,-96 306.5,-96 306.5,-102 300.5,-108 294.5,-108"/>
<text text-anchor="middle" x="255" y="-87.5" font-family="sans" font-size="10.00">tax_metagenome</text>
</g>
<!-- 19&#45;&gt;23 -->
<g id="edge45" class="edge">
<title>19&#45;&gt;23</title>
<path fill="none" stroke="grey" stroke-width="2" d="M255,-143.7C255,-135.98 255,-126.71 255,-118.11"/>
<polygon fill="grey" stroke="grey" stroke-width="2" points="258.5,-118.1 255,-108.1 251.5,-118.1 258.5,-118.1"/>
</g>
<!-- 20&#45;&gt;19 -->
<g id="edge41" class="edge">
<title>20&#45;&gt;19</title>
<path fill="none" stroke="grey" stroke-width="2" d="M349.42,-215.88C332.93,-206.64 312.38,-195.13 294.66,-185.21"/>
<polygon fill="grey" stroke="grey" stroke-width="2" points="296.13,-182.02 285.7,-180.19 292.71,-188.13 296.13,-182.02"/>
</g>
<!-- 22 -->
<g id="node23" class="node">
<title>22</title>
<path fill="none" stroke="#56d882" stroke-width="2" d="M418.5,-180C418.5,-180 341.5,-180 341.5,-180 335.5,-180 329.5,-174 329.5,-168 329.5,-168 329.5,-156 329.5,-156 329.5,-150 335.5,-144 341.5,-144 341.5,-144 418.5,-144 418.5,-144 424.5,-144 430.5,-150 430.5,-156 430.5,-156 430.5,-168 430.5,-168 430.5,-174 424.5,-180 418.5,-180"/>
<text text-anchor="middle" x="380" y="-165" font-family="sans" font-size="10.00">sourmash_gather</text>
<text text-anchor="middle" x="380" y="-154" font-family="sans" font-size="10.00">ksize: 51</text>
</g>
<!-- 20&#45;&gt;22 -->
<g id="edge44" class="edge">
<title>20&#45;&gt;22</title>
<path fill="none" stroke="grey" stroke-width="2" d="M380,-215.7C380,-207.98 380,-198.71 380,-190.11"/>
<polygon fill="grey" stroke="grey" stroke-width="2" points="383.5,-190.1 380,-180.1 376.5,-190.1 383.5,-190.1"/>
</g>
<!-- 21 -->
<g id="node22" class="node">
<title>21</title>
<path fill="none" stroke="#d89556" stroke-width="2" d="M393.5,-108C393.5,-108 336.5,-108 336.5,-108 330.5,-108 324.5,-102 324.5,-96 324.5,-96 324.5,-84 324.5,-84 324.5,-78 330.5,-72 336.5,-72 336.5,-72 393.5,-72 393.5,-72 399.5,-72 405.5,-78 405.5,-84 405.5,-84 405.5,-96 405.5,-96 405.5,-102 399.5,-108 393.5,-108"/>
<text text-anchor="middle" x="365" y="-87.5" font-family="sans" font-size="10.00">tax_annotate</text>
</g>
<!-- 21&#45;&gt;0 -->
<g id="edge18" class="edge">
<title>21&#45;&gt;0</title>
<path fill="none" stroke="grey" stroke-width="2" d="M405.74,-74.24C408.52,-73.43 411.29,-72.67 414,-72 526.19,-44.29 662.39,-28.7 726.81,-22.37"/>
<polygon fill="grey" stroke="grey" stroke-width="2" points="727.27,-25.84 736.88,-21.39 726.59,-18.87 727.27,-25.84"/>
</g>
<!-- 22&#45;&gt;21 -->
<g id="edge43" class="edge">
<title>22&#45;&gt;21</title>
<path fill="none" stroke="grey" stroke-width="2" d="M376.29,-143.7C374.64,-135.98 372.65,-126.71 370.81,-118.11"/>
<polygon fill="grey" stroke="grey" stroke-width="2" points="374.18,-117.15 368.67,-108.1 367.34,-118.62 374.18,-117.15"/>
</g>
<!-- 24 -->
<g id="node25" class="node">
<title>24</title>
<path fill="none" stroke="#d85656" stroke-width="2" d="M514.5,-108C514.5,-108 435.5,-108 435.5,-108 429.5,-108 423.5,-102 423.5,-96 423.5,-96 423.5,-84 423.5,-84 423.5,-78 429.5,-72 435.5,-72 435.5,-72 514.5,-72 514.5,-72 520.5,-72 526.5,-78 526.5,-84 526.5,-84 526.5,-96 526.5,-96 526.5,-102 520.5,-108 514.5,-108"/>
<text text-anchor="middle" x="475" y="-87.5" font-family="sans" font-size="10.00">tax_metagenome</text>
</g>
<!-- 22&#45;&gt;24 -->
<g id="edge46" class="edge">
<title>22&#45;&gt;24</title>
<path fill="none" stroke="grey" stroke-width="2" d="M403.48,-143.7C415.56,-134.8 430.45,-123.82 443.52,-114.2"/>
<polygon fill="grey" stroke="grey" stroke-width="2" points="445.81,-116.85 451.79,-108.1 441.66,-111.22 445.81,-116.85"/>
</g>
<!-- 23&#45;&gt;0 -->
<g id="edge19" class="edge">
<title>23&#45;&gt;0</title>
<path fill="none" stroke="grey" stroke-width="2" d="M306.58,-73.82C309.42,-73.16 312.24,-72.55 315,-72 466.08,-41.88 649.42,-26.79 726.75,-21.39"/>
<polygon fill="grey" stroke="grey" stroke-width="2" points="727.21,-24.87 736.94,-20.69 726.73,-17.88 727.21,-24.87"/>
</g>
<!-- 24&#45;&gt;0 -->
<g id="edge20" class="edge">
<title>24&#45;&gt;0</title>
<path fill="none" stroke="grey" stroke-width="2" d="M526.86,-75.54C531.64,-74.33 536.41,-73.14 541,-72 606.26,-55.84 682.51,-37.93 726.82,-27.61"/>
<polygon fill="grey" stroke="grey" stroke-width="2" points="727.89,-30.96 736.84,-25.28 726.31,-24.14 727.89,-30.96"/>
</g>
<!-- 25 -->
<g id="node26" class="node">
<title>25</title>
<path fill="none" stroke="#59d856" stroke-width="2" stroke-dasharray="5,2" d="M1486.5,-180C1486.5,-180 1383.5,-180 1383.5,-180 1377.5,-180 1371.5,-174 1371.5,-168 1371.5,-168 1371.5,-156 1371.5,-156 1371.5,-150 1377.5,-144 1383.5,-144 1383.5,-144 1486.5,-144 1486.5,-144 1492.5,-144 1498.5,-150 1498.5,-156 1498.5,-156 1498.5,-168 1498.5,-168 1498.5,-174 1492.5,-180 1486.5,-180"/>
<text text-anchor="middle" x="1435" y="-165" font-family="sans" font-size="10.00">sourmash_sketch_ncbi</text>
<text text-anchor="middle" x="1435" y="-154" font-family="sans" font-size="10.00">ks: 31</text>
</g>
<!-- 25&#45;&gt;0 -->
<g id="edge21" class="edge">
<title>25&#45;&gt;0</title>
<path fill="none" stroke="grey" stroke-width="2" d="M1433.52,-143.69C1430.74,-122.96 1422.78,-88.95 1400,-72 1351.9,-36.22 930.6,-23.06 801.47,-19.84"/>
<polygon fill="grey" stroke="grey" stroke-width="2" points="801.36,-16.34 791.28,-19.6 801.19,-23.34 801.36,-16.34"/>
</g>
<!-- 27 -->
<g id="node28" class="node">
<title>27</title>
<path fill="none" stroke="#afd856" stroke-width="2" d="M1557,-108C1557,-108 1459,-108 1459,-108 1453,-108 1447,-102 1447,-96 1447,-96 1447,-84 1447,-84 1447,-78 1453,-72 1459,-72 1459,-72 1557,-72 1557,-72 1563,-72 1569,-78 1569,-84 1569,-84 1569,-96 1569,-96 1569,-102 1563,-108 1557,-108"/>
<text text-anchor="middle" x="1508" y="-87.5" font-family="sans" font-size="10.00">sourmash_index_ncbi</text>
</g>
<!-- 25&#45;&gt;27 -->
<g id="edge47" class="edge">
<title>25&#45;&gt;27</title>
<path fill="none" stroke="grey" stroke-width="2" d="M1453.04,-143.7C1462.06,-135.05 1473.12,-124.45 1482.94,-115.03"/>
<polygon fill="grey" stroke="grey" stroke-width="2" points="1485.37,-117.55 1490.16,-108.1 1480.52,-112.5 1485.37,-117.55"/>
</g>
<!-- 26 -->
<g id="node27" class="node">
<title>26</title>
<path fill="none" stroke="#59d856" stroke-width="2" stroke-dasharray="5,2" d="M1692.5,-180C1692.5,-180 1589.5,-180 1589.5,-180 1583.5,-180 1577.5,-174 1577.5,-168 1577.5,-168 1577.5,-156 1577.5,-156 1577.5,-150 1583.5,-144 1589.5,-144 1589.5,-144 1692.5,-144 1692.5,-144 1698.5,-144 1704.5,-150 1704.5,-156 1704.5,-156 1704.5,-168 1704.5,-168 1704.5,-174 1698.5,-180 1692.5,-180"/>
<text text-anchor="middle" x="1641" y="-165" font-family="sans" font-size="10.00">sourmash_sketch_ncbi</text>
<text text-anchor="middle" x="1641" y="-154" font-family="sans" font-size="10.00">ks: 51</text>
</g>
<!-- 26&#45;&gt;0 -->
<g id="edge22" class="edge">
<title>26&#45;&gt;0</title>
<path fill="none" stroke="grey" stroke-width="2" d="M1634.28,-143.67C1625.09,-122.61 1606.42,-87.89 1578,-72 1509.65,-33.78 951.72,-22.04 801.26,-19.55"/>
<polygon fill="grey" stroke="grey" stroke-width="2" points="801.2,-16.05 791.15,-19.39 801.09,-23.05 801.2,-16.05"/>
</g>
<!-- 28 -->
<g id="node29" class="node">
<title>28</title>
<path fill="none" stroke="#afd856" stroke-width="2" d="M1735,-108C1735,-108 1637,-108 1637,-108 1631,-108 1625,-102 1625,-96 1625,-96 1625,-84 1625,-84 1625,-78 1631,-72 1637,-72 1637,-72 1735,-72 1735,-72 1741,-72 1747,-78 1747,-84 1747,-84 1747,-96 1747,-96 1747,-102 1741,-108 1735,-108"/>
<text text-anchor="middle" x="1686" y="-87.5" font-family="sans" font-size="10.00">sourmash_index_ncbi</text>
</g>
<!-- 26&#45;&gt;28 -->
<g id="edge48" class="edge">
<title>26&#45;&gt;28</title>
<path fill="none" stroke="grey" stroke-width="2" d="M1652.12,-143.7C1657.36,-135.56 1663.7,-125.69 1669.48,-116.7"/>
<polygon fill="grey" stroke="grey" stroke-width="2" points="1672.54,-118.41 1675,-108.1 1666.65,-114.62 1672.54,-118.41"/>
</g>
<!-- 27&#45;&gt;0 -->
<g id="edge23" class="edge">
<title>27&#45;&gt;0</title>
<path fill="none" stroke="grey" stroke-width="2" d="M1446.74,-74.36C1442.11,-73.48 1437.49,-72.68 1433,-72 1194.1,-35.65 903.17,-23.41 801.33,-20.08"/>
<polygon fill="grey" stroke="grey" stroke-width="2" points="801.35,-16.57 791.24,-19.75 801.13,-23.57 801.35,-16.57"/>
</g>
<!-- 28&#45;&gt;0 -->
<g id="edge24" class="edge">
<title>28&#45;&gt;0</title>
<path fill="none" stroke="grey" stroke-width="2" d="M1624.75,-74.28C1620.12,-73.42 1615.49,-72.65 1611,-72 1300.26,-27.36 920.04,-20.31 801.25,-19.21"/>
<polygon fill="grey" stroke="grey" stroke-width="2" points="801.25,-15.7 791.22,-19.12 801.19,-22.7 801.25,-15.7"/>
</g>
</g>
</svg>
